PathFileType	4	(X/Y/Z)	./resultDataOpenSim/trcMotMarkerGrf/sub06/qtm-14-01.trc
DataRate	CameraRate	NumFrames	NumMarkers	Units	OrigDataRate	OrigDataStartFrame	OrigNumFrames
250.000000	250.000000	7	24	m	250.000000	342	547
Frame#	Time	L.Toe.Tip			R.Toe.Tip			L.Ankle.Lat			R.Ankle.Lat			L.Ankle.Med			R.Ankle.Med			L.Heel			R.Heel			L.Knee.Lat			R.Knee.Lat			L.Knee.Med			R.Knee.Med			L.Thigh.Upper			R.Thigh.Upper			L.ASIS			R.ASIS			V.Sacral			L.Acromium			R.Acromium			C7			L.Elbow			R.Elbow			L.Wrist.Lat			R.Wrist.Lat
		X1	Y1	Z1	X2	Y2	Z2	X3	Y3	Z3	X4	Y4	Z4	X5	Y5	Z5	X6	Y6	Z6	X7	Y7	Z7	X8	Y8	Z8	X9	Y9	Z9	X10	Y10	Z10	X11	Y11	Z11	X12	Y12	Z12	X13	Y13	Z13	X14	Y14	Z14	X15	Y15	Z15	X16	Y16	Z16	X17	Y17	Z17	X18	Y18	Z18	X19	Y19	Z19	X20	Y20	Z20	X21	Y21	Z21	X22	Y22	Z22	X23	Y23	Z23	X24	Y24	Z24

342	1.364	0.85231457	0.13111413	-0.13614131	0.94292819	0.035661385	0.036997756	0.80932258	0.2544863	-0.16013794	0.81149865	0.082214282	0.07377912	0.82674568	0.26252182	-0.077098157	0.83412418	0.10872252	-0.0097625247	0.74316191	0.29046409	-0.11165069	0.75523734	0.074521262	0.015714267	1.0966866	0.49631781	-0.17404122	0.91188206	0.46156773	0.11636599	1.0869385	0.48809601	-0.047324586	0.88170176	0.46054911	-0.011884994	0.9100023	0.84907892	-0.16558539	0.90095174	0.83548483	0.17972442	0.97586614	0.89857735	-0.11532253	0.98939344	0.89500391	0.12632664	0.80005774	0.96715354	0.018102141	0.91811382	1.3757926	-0.17467427	0.93442432	1.3722027	0.1835052	0.84728364	1.4040519	0.007753615	0.86997565	1.0631044	-0.24950893	0.92274566	1.0498085	0.26759587	1.0330438	0.87619546	-0.24903319	1.1696751	0.99692545	0.24284015
343	1.368	0.8676566	0.12899953	-0.13711708	0.94317925	0.035632978	0.037101268	0.82171965	0.25137715	-0.16098034	0.81183505	0.083028962	0.073877124	0.83813433	0.25972505	-0.077692123	0.83459511	0.10962823	-0.00946329	0.75459196	0.28591029	-0.11274799	0.75579544	0.075790718	0.015813104	1.1050622	0.49853919	-0.17305894	0.91259147	0.46243881	0.11644736	1.094744	0.49056955	-0.046559852	0.88357943	0.46153179	-0.012044153	0.91691461	0.85043169	-0.1656358	0.90468194	0.83628534	0.17946036	0.98191354	0.89982455	-0.11501724	0.99380721	0.89576478	0.12698294	0.80513714	0.96795271	0.017267821	0.9231611	1.376833	-0.17465026	0.9385549	1.3732977	0.1834952	0.85196242	1.4049579	0.0075897711	0.87172821	1.0650578	-0.24960407	0.93052326	1.0507298	0.26786297	1.0316369	0.87556487	-0.25140705	1.1784257	1.0034114	0.2402062
344	1.372	0.8831039	0.12688938	-0.13801886	0.94336987	0.035578991	0.037204498	0.83419698	0.24813436	-0.16179841	0.81218645	0.083810634	0.073926195	0.84975024	0.25677478	-0.078299481	0.83524037	0.1104856	-0.0092770989	0.76606486	0.28115331	-0.11378207	0.75641555	0.077029496	0.015914261	1.1133572	0.5006263	-0.17209511	0.91336676	0.46328261	0.11647644	1.1021742	0.49284982	-0.045878493	0.88555693	0.46244116	-0.012243899	0.92397563	0.85168907	-0.16559747	0.90843717	0.83697487	0.17920036	0.98813025	0.90101826	-0.11478266	0.99812453	0.89638172	0.1278135	0.81024975	0.96867756	0.01644493	0.9282312	1.3778042	-0.1746338	0.94268366	1.3743014	0.18347529	0.85665177	1.4057889	0.0074214198	0.87359216	1.0669659	-0.24968693	0.93826889	1.0515957	0.26807932	1.0302815	0.87496523	-0.25371825	1.1869364	1.009813	0.23767857
345	1.376	0.89855293	0.12480967	-0.1388168	0.94338062	0.035530361	0.037357928	0.84675941	0.24476932	-0.16258988	0.81253938	0.084573315	0.073939548	0.86158317	0.25367786	-0.078912618	0.83608073	0.11127435	-0.0092008482	0.7775941	0.27620053	-0.11475869	0.75703171	0.078201507	0.015895335	1.121535	0.50258711	-0.17116577	0.91421552	0.46409311	0.11645726	1.1093567	0.49497663	-0.045238636	0.88760693	0.46327704	-0.012479829	0.93089661	0.85283074	-0.16567487	0.91221793	0.83757632	0.17893692	0.99441873	0.90214989	-0.1145857	1.0023934	0.89689616	0.12873841	0.81538015	0.9693253	0.015560542	0.93333205	1.378702	-0.17462397	0.94681299	1.3752132	0.18344542	0.86135018	1.4065405	0.007251207	0.87555785	1.0688302	-0.24975121	0.94602072	1.0524101	0.26828262	1.0289499	0.87439621	-0.25599684	1.1952571	1.0161423	0.23511526
346	1.38	0.9140284	0.12274559	-0.13954386	0.94321986	0.03552585	0.037570253	0.85940481	0.24128951	-0.16334196	0.81288616	0.085329207	0.073924248	0.87363663	0.25042977	-0.079516871	0.8370764	0.11199438	-0.0091743907	0.7891914	0.27106245	-0.11567046	0.75757069	0.079306631	0.015686161	1.1295492	0.50443339	-0.17027257	0.9151526	0.46485967	0.11639836	1.1163909	0.49696611	-0.044611545	0.88963383	0.46407561	-0.012753478	0.93748078	0.85385618	-0.1659966	0.91602533	0.83811684	0.17866409	1.000652	0.90320148	-0.11438553	1.0066586	0.89739242	0.1296101	0.82051968	0.96988934	0.014611979	0.9384641	1.3795255	-0.1746215	0.95094508	1.3760334	0.18340443	0.86605131	1.4072099	0.0070748281	0.87758675	1.070651	-0.24978034	0.95384569	1.0531864	0.26853694	1.0276209	0.87387019	-0.25825718	1.2034478	1.0224051	0.23246561
347	1.384	0.92960367	0.12066629	-0.14025814	0.94305721	0.035582247	0.037788236	0.87212867	0.23770047	-0.16403499	0.81322602	0.086081166	0.07388197	0.88589845	0.24702865	-0.08009184	0.83819166	0.11265623	-0.0091161054	0.80087137	0.26574876	-0.1165075	0.75802702	0.080385213	0.015358593	1.1373837	0.50616802	-0.16939756	0.91619844	0.46556876	0.11630613	1.1233686	0.49881647	-0.043982379	0.89158662	0.46486105	-0.01305992	0.94382599	0.85479514	-0.16648023	0.91985416	0.8386029	0.17838165	1.0068362	0.90416831	-0.1141822	1.0109432	0.89796026	0.13026706	0.82566084	0.97036284	0.013660789	0.94361455	1.3802786	-0.17462676	0.95508158	1.3767631	0.18335118	0.87075111	1.4078011	0.0068878978	0.87963512	1.0724264	-0.24975658	0.96179313	1.0539389	0.26888061	1.0262992	0.87340295	-0.26048736	1.2115291	1.0285862	0.22980031
348	1.388	0.94531091	0.11855743	-0.14099051	0.94302904	0.035668834	0.037953127	0.88493557	0.23400619	-0.16465915	0.81353707	0.086828545	0.073824174	0.89828428	0.24349097	-0.080608496	0.83936129	0.11327873	-0.0089836031	0.81266613	0.26025889	-0.11728099	0.75844629	0.081468361	0.015026069	1.1450512	0.50778381	-0.16851786	0.91736501	0.46621155	0.11618307	1.1303513	0.50052346	-0.043343488	0.89352762	0.46559727	-0.013371809	0.95014609	0.85567542	-0.16694828	0.92369645	0.83902809	0.17809213	1.013087	0.90506033	-0.11400696	1.0152684	0.89861045	0.13066187	0.8307935	0.97074586	0.012764922	0.94876613	1.3809668	-0.1746382	0.9592233	1.3774043	0.1832865	0.8754501	1.4083181	0.0066871231	0.88169617	1.0741552	-0.2496782	0.96982993	1.0546683	0.26925615	1.0250015	0.87299503	-0.26267098	1.2194914	1.0346611	0.22719037
